<mxfile host="drawio-plugin" modified="2021-07-19T11:54:26.145Z" agent="5.0 (Macintosh; Intel Mac OS X 10_14_6) AppleWebKit/537.36 (KHTML, like Gecko) Chrome/87.0.4280.141 Safari/537.36" version="14.7.4" etag="VkSikrX877T0U3p4tlrT" type="embed"><diagram id="fQY3nZBBjuJByeCQxD8k" name="Page-1"><mxGraphModel dx="1049" dy="476" grid="1" gridSize="10" guides="1" tooltips="1" connect="1" arrows="1" fold="1" page="1" pageScale="1" pageWidth="850" pageHeight="1100" math="0" shadow="0"><root><mxCell id="0"/><mxCell id="1" parent="0"/><mxCell id="2" value="" style="verticalLabelPosition=bottom;html=1;verticalAlign=top;align=center;strokeColor=none;fillColor=#00BEF2;shape=mxgraph.azure.queue_generic;pointerEvents=1;" vertex="1" parent="1"><mxGeometry x="200" y="170" width="250" height="50" as="geometry"/></mxCell><mxCell id="4" value="" style="endArrow=classic;html=1;" edge="1" parent="1"><mxGeometry relative="1" as="geometry"><mxPoint x="90" y="194.5" as="sourcePoint"/><mxPoint x="190" y="194.5" as="targetPoint"/></mxGeometry></mxCell><mxCell id="5" value="" style="shape=message;html=1;outlineConnect=0;" vertex="1" parent="4"><mxGeometry width="20" height="14" relative="1" as="geometry"><mxPoint x="-10" y="-7" as="offset"/></mxGeometry></mxCell><mxCell id="6" value="" style="endArrow=classic;html=1;" edge="1" parent="1"><mxGeometry relative="1" as="geometry"><mxPoint x="460" y="194.5" as="sourcePoint"/><mxPoint x="560" y="194.5" as="targetPoint"/></mxGeometry></mxCell><mxCell id="7" value="" style="shape=message;html=1;outlineConnect=0;" vertex="1" parent="6"><mxGeometry width="20" height="14" relative="1" as="geometry"><mxPoint x="-10" y="-7" as="offset"/></mxGeometry></mxCell></root></mxGraphModel></diagram></mxfile>